<?xml version="1.0" encoding="UTF-8" standalone="no"?>
<svg
   width="25"
   height="25"
   viewBox="0 0 18.750001 18.750001"
   version="1.1"
   id="svg27"
   sodipodi:docname="condom.svg"
   inkscape:version="1.1.1 (3bf5ae0d25, 2021-09-20)"
   xmlns:inkscape="http://www.inkscape.org/namespaces/inkscape"
   xmlns:sodipodi="http://sodipodi.sourceforge.net/DTD/sodipodi-0.dtd"
   xmlns="http://www.w3.org/2000/svg"
   xmlns:svg="http://www.w3.org/2000/svg">
  <defs
     id="defs31" />
  <sodipodi:namedview
     id="namedview29"
     pagecolor="#ffffff"
     bordercolor="#666666"
     borderopacity="1.0"
     inkscape:pageshadow="2"
     inkscape:pageopacity="0.0"
     inkscape:pagecheckerboard="0"
     inkscape:document-units="pt"
     showgrid="false"
     units="px"
     width="33.33333px"
     inkscape:zoom="10.975583"
     inkscape:cx="-1.0477803"
     inkscape:cy="24.463392"
     inkscape:window-width="1920"
     inkscape:window-height="1011"
     inkscape:window-x="0"
     inkscape:window-y="0"
     inkscape:window-maximized="1"
     inkscape:current-layer="svg27" />
  <g
     id="g864"
     transform="scale(0.03662109)">
    <g
       id="#cff2ffff">
      <path
         fill="#cff2ff"
         opacity="1"
         d="m 288,0 h 1.66 c 2.14,0.69 3.34,2.63 3.48,4.81 9.39,55.3 18.9,110.59 28.26,165.89 -3.63,1.44 -7.08,4.59 -11.16,4.08 -5.42,-3.89 -8.68,-10.1 -13.69,-14.46 -1.22,-1.2 -3.06,-1.11 -4.49,-0.38 -4.32,1.9 -8.43,4.23 -12.7,6.24 -3.05,-27.21 -16.85,-53.04 -37.91,-70.57 -21.76,-18.41 -51.04,-27.53 -79.41,-24.77 -25.98,2.27 -50.87,14.52 -68.66,33.57 -18.41,19.39 -29.1,45.86 -29.28,72.6 -0.43,25.56 8.69,51.12 25.19,70.65 15.74,18.84 38.06,32.08 62.19,36.67 14.04,2.76 28.61,2.56 42.63,-0.25 -2.99,14.99 -6.02,29.97 -9.03,44.96 -2.57,-1.08 -5.85,-3.92 -8.48,-1.4 -4.28,4.06 -7.91,8.76 -12.17,12.85 -1.1,1.17 -2.9,1.57 -4.36,0.87 -5.54,-2.46 -10.61,-5.87 -16.19,-8.24 -1.54,-0.74 -3.29,0.03 -4.37,1.18 -4.06,4.05 -7.64,8.56 -11.79,12.51 -1.27,1.37 -3.33,1.41 -4.89,0.55 -5.12,-2.5 -9.99,-5.5 -15.18,-7.86 -1.44,-0.75 -3.26,-0.44 -4.37,0.73 -4.1,3.94 -7.67,8.4 -11.68,12.42 -1.16,1.22 -3.05,2.13 -4.68,1.23 -5.79,-2.52 -11.01,-6.24 -16.92,-8.49 -0.49,0.05 -1.47,0.13 -1.96,0.17 -4.36,2.83 -6.85,7.76 -11.1,10.75 -2.91,1.4 -5.96,-1.27 -5.92,-4.25 C 33.99,252.53 17.14,152.95 0,53.44 v -1.47 c 0.65,-2.06 2.67,-4 4.97,-3.24 4.02,1.45 7.51,4.02 11.42,5.73 1.45,0.77 3.41,0.84 4.64,-0.38 4.32,-4.06 7.97,-8.78 12.23,-12.89 1.19,-1.26 3.09,-1.7 4.63,-0.8 5.31,2.42 10.26,5.56 15.55,8.01 1.39,0.76 3.14,0.44 4.27,-0.64 4.71,-4.28 8.37,-9.65 13.28,-13.69 0.5,-0.1 1.49,-0.28 1.99,-0.38 6.03,2.06 11.24,5.98 17.09,8.47 1.43,0.75 3.23,0.43 4.34,-0.72 4.27,-4.06 7.9,-8.76 12.15,-12.83 1.12,-1.2 2.96,-1.53 4.41,-0.74 5.23,2.33 10.08,5.42 15.26,7.86 1.54,0.87 3.6,0.75 4.84,-0.58 4.08,-3.95 7.65,-8.4 11.68,-12.41 1.18,-1.31 3.13,-2.09 4.79,-1.15 5.31,2.38 10.23,5.56 15.51,7.99 1.56,0.91 3.51,0.52 4.71,-0.77 4.3,-4.11 7.93,-8.86 12.27,-12.92 1.21,-1.18 3.13,-1.11 4.56,-0.36 4.87,2.3 9.51,5.06 14.31,7.49 1.52,0.85 3.58,1.23 4.99,-0.04 4.75,-4.28 8.46,-9.62 13.33,-13.76 0.44,-0.14 1.33,-0.41 1.77,-0.55 6.76,1.9 12.29,6.86 18.99,8.92 0.47,-0.11 1.42,-0.32 1.89,-0.42 5.26,-4.22 8.92,-10.16 14.22,-14.35 0.47,-0.1 1.41,-0.3 1.88,-0.4 6.69,2.15 12.21,7.1 18.98,8.98 C 280.54,9.37 282.73,2.67 288,0 Z"
         id="path2" />
    </g>
    <g
       id="#3dcbffff">
      <path
         fill="#3dcbff"
         opacity="1"
         d="m 93.38,104.41 c 17.79,-19.05 42.68,-31.3 68.66,-33.57 28.37,-2.76 57.65,6.36 79.41,24.77 21.06,17.53 34.86,43.36 37.91,70.57 -1.93,0.74 -4.2,2.32 -6.21,0.96 -5.26,-4.41 -8.6,-10.87 -14.16,-14.88 -4.59,-0.34 -8.42,3.3 -12.58,4.89 -4.16,-15.48 -13.38,-29.65 -26.29,-39.23 -17.27,-13.14 -40.35,-18.1 -61.56,-13.92 -15.02,2.8 -29.58,9.29 -40.88,19.68 -13.64,13.04 -21.15,31.68 -22.43,50.33 -1.26,17.73 4.17,35.75 14.72,50.02 11.23,15.57 28.6,26.3 47.36,30.06 11.41,2.74 23.44,1.87 34.7,-1.11 2.87,-0.62 5.74,-2.47 8.73,-1.48 -2.39,10.82 -4.4,21.73 -6.65,32.58 -14.02,2.81 -28.59,3.01 -42.63,0.25 C 127.35,279.74 105.03,266.5 89.29,247.66 72.79,228.13 63.67,202.57 64.1,177.01 64.28,150.27 74.97,123.8 93.38,104.41 Z"
         id="path5" />
    </g>
    <g
       id="#73d9ffff">
      <path
         fill="#73d9ff"
         opacity="1"
         d="m 158.56,104 c 21.21,-4.18 44.29,0.78 61.56,13.92 12.91,9.58 22.13,23.75 26.29,39.23 -2.99,1.17 -6.04,3.93 -9.39,2.85 -4.01,-3.01 -6.38,-7.68 -10.31,-10.77 -2.13,-1.5 -5.47,-0.06 -5.89,2.5 -1.29,4.84 -1.98,9.82 -3.08,14.71 -2.65,-10.03 -5.33,-20.3 -11.16,-29.04 -3.62,-6.49 -9.04,-11.65 -14.35,-16.74 -9.51,-8.5 -21.61,-13.1 -33.67,-16.66 z"
         id="path8" />
      <path
         fill="#73d9ff"
         opacity="1"
         d="m 197.21,231.24 c 3.08,-3.31 5.7,-7 8.63,-10.44 0.14,0.57 0.4,1.72 0.53,2.29 -1.84,9.48 -3.9,18.91 -5.61,28.41 -2.99,-0.99 -5.86,0.86 -8.73,1.48 -11.26,2.98 -23.29,3.85 -34.7,1.11 5.79,-2.15 11.86,-3.54 17.38,-6.37 8.34,-4.18 16.2,-9.55 22.5,-16.48 z"
         id="path10" />
    </g>
    <g
       id="#8ce0ffff">
      <path
         fill="#8ce0ff"
         opacity="1"
         d="m 117.68,123.68 c 11.3,-10.39 25.86,-16.88 40.88,-19.68 12.06,3.56 24.16,8.16 33.67,16.66 5.31,5.09 10.73,10.25 14.35,16.74 5.83,8.74 8.51,19.01 11.16,29.04 -3.78,18.89 -7.55,37.77 -11.37,56.65 -0.13,-0.57 -0.39,-1.72 -0.53,-2.29 -2.93,3.44 -5.55,7.13 -8.63,10.44 -6.3,6.93 -14.16,12.3 -22.5,16.48 -5.52,2.83 -11.59,4.22 -17.38,6.37 -18.76,-3.76 -36.13,-14.49 -47.36,-30.06 -10.55,-14.27 -15.98,-32.29 -14.72,-50.02 1.28,-18.65 8.79,-37.29 22.43,-50.33 z"
         id="path13" />
    </g>
    <g
       id="#ffbdf1ff">
      <path
         fill="#ffbdf1"
         opacity="1"
         d="m 220.82,151.73 c 0.42,-2.56 3.76,-4 5.89,-2.5 3.93,3.09 6.3,7.76 10.31,10.77 3.35,1.08 6.4,-1.68 9.39,-2.85 4.16,-1.59 7.99,-5.23 12.58,-4.89 5.56,4.01 8.9,10.47 14.16,14.88 2.01,1.36 4.28,-0.22 6.21,-0.96 4.27,-2.01 8.38,-4.34 12.7,-6.24 1.43,-0.73 3.27,-0.82 4.49,0.38 5.01,4.36 8.27,10.57 13.69,14.46 4.08,0.51 7.53,-2.64 11.16,-4.08 3.44,-1.36 6.69,-4.44 10.56,-3.77 5.04,3.95 8.46,9.62 13.05,14.08 0.98,1.05 2.61,1.7 4,1.09 6.19,-2.23 11.65,-6.27 17.96,-8.14 3.93,0.78 5.7,5.05 8.43,7.59 2.83,2.67 4.7,6.96 8.61,8.08 6.77,-1.6 12.44,-6.26 19.07,-8.34 1.8,-0.15 3.1,1.2 4.22,2.41 3.31,3.7 6.47,7.55 9.8,11.23 1.14,1.37 2.96,2.57 4.79,1.79 5.54,-2.16 10.62,-5.33 16.09,-7.63 1.4,-0.73 3.22,-0.59 4.36,0.57 4.59,4.41 8.11,9.88 12.88,14.1 0.45,0.13 1.36,0.41 1.81,0.54 6.4,-1.78 11.88,-5.89 18.1,-8.17 3.04,-0.95 4.88,2.23 6.66,4.08 3.45,3.67 6.25,8.04 10.28,11.12 5.81,0.47 10.28,-4.84 15.9,-5.84 2.04,0.01 3.42,1.69 4.03,3.48 v 1.25 c -20.06,99.3 -39.9,198.65 -59.93,297.95 -0.21,1.85 -1.6,3.08 -3.2,3.83 h -1.66 c -4.92,-2.6 -7.13,-8.29 -11.64,-11.41 -1.48,-0.81 -3.11,-0.07 -4.49,0.55 -4.71,2.24 -9.28,4.78 -14.06,6.85 -1.44,0.73 -3.33,0.86 -4.54,-0.36 -4.88,-4.47 -8.3,-10.5 -13.59,-14.48 -4.46,-0.51 -8.15,3.16 -12.19,4.63 -3.28,1.16 -6.8,4.72 -10.35,2.76 -4.46,-4.17 -7.98,-9.27 -12.28,-13.6 -1.22,-1.43 -3.35,-1.7 -4.95,-0.77 -5.29,2.34 -10.29,5.31 -15.65,7.49 -1.68,0.76 -3.53,-0.11 -4.63,-1.42 -3.72,-3.99 -7.09,-8.3 -10.83,-12.28 -1.11,-1.33 -2.98,-2.16 -4.64,-1.35 -5.58,2.29 -10.73,5.53 -16.35,7.74 -1.47,0.68 -3.2,0.07 -4.22,-1.08 -4.3,-4.32 -7.78,-9.41 -12.24,-13.56 -3.53,-2.05 -6.99,1.58 -10.24,2.74 -4.06,1.56 -7.83,5.01 -12.32,4.65 -5.29,-3.99 -8.69,-10.02 -13.58,-14.48 -1.15,-1.1 -2.92,-1.2 -4.28,-0.48 -5.33,2.31 -10.34,5.29 -15.7,7.52 -1.66,0.79 -3.6,0.08 -4.72,-1.27 -3.95,-4.13 -7.37,-8.75 -11.39,-12.81 -1.12,-1.27 -3.01,-1.53 -4.5,-0.8 -5.38,2.31 -10.42,5.36 -15.85,7.57 -1.49,0.7 -3.28,0.22 -4.36,-0.98 -3.97,-4.08 -7.41,-8.65 -11.34,-12.77 -0.99,-1.09 -2.55,-1.96 -4.05,-1.4 -4.61,1.49 -8.55,4.62 -13.25,5.9 -3.2,0.21 -5.12,-3.33 -3.99,-6.11 8.02,-39.99 16.07,-79.96 24.09,-119.95 3.01,-14.99 6.04,-29.97 9.03,-44.96 2.25,-10.85 4.26,-21.76 6.65,-32.58 1.71,-9.5 3.77,-18.93 5.61,-28.41 3.82,-18.88 7.59,-37.76 11.37,-56.65 1.1,-4.89 1.79,-9.87 3.08,-14.71 m 99.5,71.76 c -24.74,3.72 -48.07,16.34 -64.63,35.1 -14.02,15.43 -23.07,35.2 -26.19,55.78 -1.24,7.81 -0.99,15.75 -0.81,23.62 2.04,34.17 21.83,66.6 51.1,84.27 21.29,13.33 47.4,18.56 72.21,14.85 33.81,-4.63 64.66,-26.62 80.09,-57.04 11.11,-20.89 14.67,-45.56 10.5,-68.8 -6.37,-38.03 -34.98,-71.28 -71.64,-83.19 -16.16,-5.76 -33.71,-6.7 -50.63,-4.59 z"
         id="path16" />
      <path
         fill="#ffbdf1"
         opacity="1"
         d="m 261.23,312.98 c 6.44,-29.03 31.48,-52.59 60.57,-58.16 8.64,2.45 17.34,5.29 24.75,10.54 21.85,14.01 36.29,39.54 35.6,65.65 0.21,8.01 -0.97,16.06 -3.48,23.67 -5.44,14.74 -14.64,28.34 -27.53,37.55 -10.63,7.31 -23.45,11.93 -36.42,11.94 -29.4,-8.28 -51.96,-35.82 -54.93,-66.15 -0.51,-8.36 -0.59,-16.86 1.44,-25.04 z"
         id="path18" />
    </g>
    <g
       id="#ff8fe7ff">
      <path
         fill="#ff8fe7"
         opacity="1"
         d="m 320.32,223.49 c 16.92,-2.11 34.47,-1.17 50.63,4.59 36.66,11.91 65.27,45.16 71.64,83.19 4.17,23.24 0.61,47.91 -10.5,68.8 -15.43,30.42 -46.28,52.41 -80.09,57.04 -24.81,3.71 -50.92,-1.52 -72.21,-14.85 -29.27,-17.67 -49.06,-50.1 -51.1,-84.27 -0.18,-7.87 -0.43,-15.81 0.81,-23.62 3.12,-20.58 12.17,-40.35 26.19,-55.78 16.56,-18.76 39.89,-31.38 64.63,-35.1 m 1.48,31.33 c -29.09,5.57 -54.13,29.13 -60.57,58.16 -2.03,8.18 -1.95,16.68 -1.44,25.04 2.97,30.33 25.53,57.87 54.93,66.15 3.8,1.87 8.11,2.01 12.23,2.64 18.66,2.46 38.23,-2.27 53.59,-13.19 14.75,-10.45 26.05,-25.97 30.47,-43.6 4.62,-16.96 3.05,-35.65 -4.65,-51.48 -8.93,-19.93 -26.69,-35.86 -47.64,-42.18 -11.87,-3.55 -24.86,-4.86 -36.92,-1.54 z"
         id="path21" />
    </g>
    <g
       id="#ffb0eeff">
      <path
         fill="#ffb0ee"
         opacity="1"
         d="m 321.8,254.82 c 12.06,-3.32 25.05,-2.01 36.92,1.54 20.95,6.32 38.71,22.25 47.64,42.18 7.7,15.83 9.27,34.52 4.65,51.48 -4.42,17.63 -15.72,33.15 -30.47,43.6 -15.36,10.92 -34.93,15.65 -53.59,13.19 -4.12,-0.63 -8.43,-0.77 -12.23,-2.64 12.97,-0.01 25.79,-4.63 36.42,-11.94 12.89,-9.21 22.09,-22.81 27.53,-37.55 2.51,-7.61 3.69,-15.66 3.48,-23.67 0.69,-26.11 -13.75,-51.64 -35.6,-65.65 -7.41,-5.25 -16.11,-8.09 -24.75,-10.54 z"
         id="path24" />
    </g>
  </g>
</svg>
