<?xml version="1.0" encoding="UTF-8" standalone="no"?>
<svg
   xmlns:dc="http://purl.org/dc/elements/1.1/"
   xmlns:cc="http://creativecommons.org/ns#"
   xmlns:rdf="http://www.w3.org/1999/02/22-rdf-syntax-ns#"
   xmlns:svg="http://www.w3.org/2000/svg"
   xmlns="http://www.w3.org/2000/svg"
   xmlns:xlink="http://www.w3.org/1999/xlink"
   xmlns:sodipodi="http://sodipodi.sourceforge.net/DTD/sodipodi-0.dtd"
   xmlns:inkscape="http://www.inkscape.org/namespaces/inkscape"
   width="264"
   height="262"
   viewBox="0 0 264 262"
   version="1.1"
   id="svg88"
   sodipodi:docname="irene_circle.svg"
   inkscape:version="1.0.2 (e86c870879, 2021-01-15, custom)">
  <metadata
     id="metadata92">
    <rdf:RDF>
      <cc:Work
         rdf:about="">
        <dc:format>image/svg+xml</dc:format>
        <dc:type
           rdf:resource="http://purl.org/dc/dcmitype/StillImage" />
        <dc:title></dc:title>
      </cc:Work>
    </rdf:RDF>
  </metadata>
  <sodipodi:namedview
     pagecolor="#ffffff"
     bordercolor="#666666"
     borderopacity="1"
     objecttolerance="10"
     gridtolerance="10"
     guidetolerance="10"
     inkscape:pageopacity="0"
     inkscape:pageshadow="2"
     inkscape:window-width="1920"
     inkscape:window-height="1057"
     id="namedview90"
     showgrid="false"
     inkscape:zoom="2.5535714"
     inkscape:cx="132"
     inkscape:cy="140"
     inkscape:window-x="0"
     inkscape:window-y="0"
     inkscape:window-maximized="1"
     inkscape:current-layer="svg88" />
  <desc
     id="desc2">Created with getavataaars.com</desc>
  <defs
     id="defs7">
    <circle
       id="path-1"
       cx="120"
       cy="120"
       r="120" />
    <path
       d="m 12,160 c 0,66.27417 53.72583,120 120,120 66.27417,0 120,-53.72583 120,-120 h 12 V 0 H 0 v 160 z"
       id="path-3" />
    <path
       d="M 124,144.61095 V 163 h 4 v 0 c 39.7645,0 72,32.2355 72,72 v 9 H 0 v -9 c 0,-39.7645 32.235498,-72 72,-72 v 0 h 4 V 144.61095 C 58.762634,136.42237 46.372225,119.68701 44.305139,99.881238 38.480311,99.057787 34,94.05211 34,88 V 74 C 34,68.054007 38.324573,63.118073 44,62.165917 V 56 56 C 44,25.072054 69.072054,0 100,0 v 0 0 c 30.92795,0 56,25.072054 56,56 v 6.165917 c 5.67543,0.952156 10,5.88809 10,11.834083 v 14 c 0,6.05211 -4.48031,11.057787 -10.30514,11.881238 C 153.62778,119.68701 141.23736,136.42237 124,144.61095 Z"
       id="path-5" />
  </defs>
  <g
     id="g86"
     stroke="none"
     stroke-width="1"
     fill="none"
     fill-rule="evenodd"
     transform="translate(0,-18)">
    <g
       transform="translate(-825,-1100)"
       id="Avataaar/Circle">
      <g
         transform="translate(825,1100)"
         id="g83">
        <g
           id="Circle"
           stroke-width="1"
           fill-rule="evenodd"
           transform="translate(12,40)">
          <mask
             id="mask-2"
             fill="#ffffff">
            <use
               xlink:href="#path-1"
               id="use9"
               x="0"
               y="0"
               width="100%"
               height="100%" />
          </mask>
          <use
             id="Circle-Background"
             fill="#e6e6e6"
             xlink:href="#path-1"
             x="0"
             y="0"
             width="100%"
             height="100%" />
          <g
             id="Color/Palette/Blue-01"
             mask="url(#mask-2)"
             fill="#65c9ff">
            <rect
               id="ðŸ–Color"
               x="0"
               y="0"
               width="240"
               height="240" />
          </g>
        </g>
        <mask
           id="mask-4"
           fill="#ffffff">
          <use
             xlink:href="#path-3"
             id="use16"
             x="0"
             y="0"
             width="100%"
             height="100%" />
        </mask>
        <g
           id="Mask" />
        <g
           id="Avataaar"
           stroke-width="1"
           fill-rule="evenodd"
           mask="url(#mask-4)">
          <g
             id="Body"
             transform="translate(32,36)">
            <mask
               id="mask-6"
               fill="#ffffff">
              <use
                 xlink:href="#path-5"
                 id="use20"
                 x="0"
                 y="0"
                 width="100%"
                 height="100%" />
            </mask>
            <use
               fill="#d0c6ac"
               xlink:href="#path-5"
               id="use23"
               x="0"
               y="0"
               width="100%"
               height="100%" />
            <g
               id="Skin/ðŸ‘¶ðŸ½-03-Brown"
               mask="url(#mask-6)"
               fill="#edb98a">
              <g
                 transform="translate(-32)"
                 id="Color">
                <rect
                   x="0"
                   y="0"
                   width="264"
                   height="244"
                   id="rect25" />
              </g>
            </g>
            <path
               d="m 156,79 v 23 c 0,30.92795 -25.07205,56 -56,56 -30.927946,0 -56,-25.07205 -56,-56 V 79 94 c 0,30.92795 25.072054,56 56,56 30.92795,0 56,-25.07205 56,-56 z"
               id="Neck-Shadow"
               fill-opacity="0.1"
               fill="#000000"
               mask="url(#mask-6)" />
          </g>
          <g
             id="Clothing/Collar-+-Sweater"
             transform="translate(0,170)">
            <defs
               id="defs32">
              <path
                 d="M 105.1924,29.051724 H 104 v 0 c -39.764502,0 -72,32.235497 -72,71.999996 V 110 h 200 v -8.94828 C 232,61.287221 199.7645,29.051724 160,29.051724 v 0 h -1.1924 c 0.12704,0.98359 0.1924,1.984727 0.1924,3 0,13.807118 -12.08831,25 -27,25 -14.91169,0 -27,-11.192882 -27,-25 0,-1.015273 0.0654,-2.01641 0.1924,-3 z"
                 id="react-path-208" />
            </defs>
            <mask
               id="react-mask-209"
               fill="#ffffff">
              <use
                 xlink:href="#react-path-208"
                 id="use34"
                 x="0"
                 y="0"
                 width="100%"
                 height="100%" />
            </mask>
            <use
               id="Clothes"
               fill="#e6e6e6"
               fill-rule="evenodd"
               xlink:href="#react-path-208"
               x="0"
               y="0"
               width="100%"
               height="100%" />
            <g
               id="Color/Palette/Gray-01"
               mask="url(#react-mask-209)"
               fill-rule="evenodd"
               fill="#e6e6e6">
              <rect
                 id="rect38"
                 x="0"
                 y="0"
                 width="264"
                 height="110" />
            </g>
            <path
               d="m 156,22.279491 c 6.18165,4.555695 10,10.826236 10,17.748424 0,7.205579 -4.1374,13.705062 -10.771,18.299252 L 149.57933,53.876493 145,54.207887 l 1,-3.151105 -0.0778,-0.06127 C 152.02249,47.853051 156,42.700358 156,36.87681 Z m -48,-0.707992 c -6.76725,4.602509 -11,11.168278 -11,18.456416 0,7.39824 4.3616,14.05212 11.30843,18.663657 l 6.11224,-4.815079 4.57933,0.331394 -1,-3.151105 0.0778,-0.06127 C 111.97751,47.853051 108,42.700358 108,36.87681 Z"
               id="Collar"
               fill="#f2f2f2"
               fill-rule="evenodd" />
          </g>
          <g
             id="Face"
             transform="translate(76,82)"
             fill="#000000">
            <g
               id="Mouth/Default"
               transform="translate(2,52)"
               fill-opacity="0.7">
              <path
                 d="m 40,15 c 0,7.731987 6.268014,14 14,14 v 0 c 7.731986,0 14,-6.268013 14,-14"
                 id="Mouth" />
            </g>
            <g
               id="Nose/Default"
               transform="translate(28,40)"
               fill-opacity="0.16">
              <path
                 d="m 16,8 c 0,4.418278 5.372583,8 12,8 v 0 c 6.627417,0 12,-3.581722 12,-8"
                 id="Nose" />
            </g>
            <g
               id="Eyes/Default-ðŸ˜€"
               transform="translate(0,8)"
               fill-opacity="0.6">
              <circle
                 id="Eye"
                 cx="30"
                 cy="22"
                 r="6" />
              <circle
                 id="circle48"
                 cx="82"
                 cy="22"
                 r="6" />
            </g>
            <g
               id="Eyebrow/Outline/Default"
               fill-opacity="0.6">
              <g
                 id="I-Browse"
                 transform="translate(12,6)">
                <path
                   d="M 3.6302454,11.158577 C 7.545155,5.6498667 18.27792,2.5608372 27.523027,4.8311805 28.595725,5.0946055 29.678867,4.4385601 29.942292,3.3658621 30.205717,2.2931641 29.549671,1.2100224 28.476973,0.94659732 17.740363,-1.6900179 5.3120996,1.8869983 0.36975464,8.8414233 -0.27010963,9.7417829 -0.05893639,10.990381 0.84142326,11.630245 1.7417829,12.27011 2.9903811,12.058936 3.6302454,11.158577 Z"
                   id="Eyebrow"
                   fill-rule="nonzero" />
                <path
                   d="M 61.630245,11.158577 C 65.545155,5.6498667 76.27792,2.5608372 85.523027,4.8311805 86.595725,5.0946055 87.678866,4.4385601 87.942292,3.3658621 88.205717,2.2931641 87.549671,1.2100224 86.476973,0.94659732 75.740363,-1.6900179 63.3121,1.8869983 58.369755,8.8414233 c -0.639865,0.9003596 -0.428691,2.1489577 0.471668,2.7888217 0.90036,0.639865 2.148958,0.428691 2.788822,-0.471668 z"
                   id="path52"
                   fill-rule="nonzero"
                   transform="matrix(-1,0,0,1,146.00031,0)" />
              </g>
            </g>
          </g>
          <g
             id="Top"
             stroke-width="1"
             fill-rule="evenodd">
            <defs
               id="defs59">
              <rect
                 id="react-path-204"
                 x="0"
                 y="0"
                 width="264"
                 height="280" />
              <path
                 d="M 133.50638,81.335115 C 137.36365,83.3307 140,87.357474 140,92 v 13 c 0,6.01863 -4.43087,11.00236 -10.20858,11.86719 -1.74323,20.2476 -14.26064,37.41579 -31.79142,45.74376 v 0 V 181 h 4 c 17.49091,0 33.52512,6.23689 46,16.60805 V 74 C 148,53.565464 139.71727,35.065464 126.3259,21.674098 112.93454,8.2827321 94.434536,0 74,0 33.130929,0 0,33.130929 0,74 V 257.71645 C 13.569177,255.77553 24,244.10589 24,230 V 184.4231 C 30.934681,182.2002 38.32718,181 46,181 h 4 v -18.38905 c -11.227375,-5.33354 -20.398463,-14.293 -26,-25.3651 V 75.265959 C 33.14679,72.291006 42.777598,68.017065 52.341516,62.495334 67.744547,53.60239 80.431395,42.940915 89.066143,32.397036 90.831069,37.595144 93.175256,42.800974 96.110431,47.884847 104.87788,63.070515 117.22419,74.233705 130,79.917049 v 0.248868 c 0.40042,0.06718 0.79412,0.154187 1.18005,0.259982 0.77446,0.323407 1.55013,0.626586 2.32633,0.909216 z"
                 id="react-path-205" />
            </defs>
            <mask
               id="react-mask-202"
               fill="#ffffff">
              <use
                 xlink:href="#react-path-204"
                 id="use61"
                 x="0"
                 y="0"
                 width="100%"
                 height="100%" />
            </mask>
            <g
               id="g64" />
            <g
               id="Top/Long-Hair/Straight"
               mask="url(#react-mask-202)">
              <g
                 transform="translate(-1)"
                 id="g78">
                <g
                   id="Hair"
                   stroke-width="1"
                   fill="none"
                   fill-rule="evenodd"
                   transform="translate(59,18)">
                  <mask
                     id="react-mask-203"
                     fill="#ffffff">
                    <use
                       xlink:href="#react-path-205"
                       id="use66"
                       x="0"
                       y="0"
                       width="100%"
                       height="100%" />
                  </mask>
                  <use
                     id="Mask-Hair"
                     fill="#944f23"
                     xlink:href="#react-path-205"
                     x="0"
                     y="0"
                     width="100%"
                     height="100%" />
                  <g
                     id="g74"
                     mask="url(#react-mask-203)"
                     fill="#724133">
                    <g
                       id="g72">
                      <rect
                         x="0"
                         y="0"
                         width="264"
                         height="280"
                         id="rect70" />
                    </g>
                  </g>
                </g>
                <path
                   d="m 192.50638,99.335115 c 4.86812,1.772585 9.7567,2.736845 14.49362,2.813115 v 0 V 92 C 207,71.565464 198.71727,53.065464 185.3259,39.674098 198.71727,53.065464 207,71.565464 207,92 V 215.60805 C 194.52512,205.23689 178.49091,199 161,199 h -4 v -18.38905 0 c 17.53078,-8.32797 30.04819,-25.49616 31.79142,-45.74376 C 194.56913,134.00236 199,129.01862 199,123 v -13 c 0,-4.64253 -2.63635,-8.6693 -6.49362,-10.664885 z m -2.32633,-0.909216 C 189.79412,98.320104 189.40042,98.233095 189,98.165917 v -0.248868 c 0.39297,0.174815 0.78635,0.344446 1.18005,0.50885 z M 83,155.24585 c 5.601537,11.0721 14.772625,20.03156 26,25.3651 V 199 h -4 c -7.67282,0 -15.065319,1.2002 -22,3.4231 z"
                   id="Shadow"
                   fill-opacity="0.24"
                   fill="#000000"
                   fill-rule="evenodd" />
              </g>
            </g>
          </g>
        </g>
      </g>
    </g>
  </g>
</svg>
