<?xml version="1.0" encoding="UTF-8" standalone="no"?>
<svg
   xmlns:dc="http://purl.org/dc/elements/1.1/"
   xmlns:cc="http://creativecommons.org/ns#"
   xmlns:rdf="http://www.w3.org/1999/02/22-rdf-syntax-ns#"
   xmlns:svg="http://www.w3.org/2000/svg"
   xmlns="http://www.w3.org/2000/svg"
   xmlns:xlink="http://www.w3.org/1999/xlink"
   xmlns:sodipodi="http://sodipodi.sourceforge.net/DTD/sodipodi-0.dtd"
   xmlns:inkscape="http://www.inkscape.org/namespaces/inkscape"
   width="264"
   height="253.901"
   viewBox="0 0 264 253.901"
   version="1.1"
   id="svg140"
   sodipodi:docname="salva_circle.svg"
   inkscape:version="1.0.2 (e86c870879, 2021-01-15, custom)">
  <metadata
     id="metadata144">
    <rdf:RDF>
      <cc:Work
         rdf:about="">
        <dc:format>image/svg+xml</dc:format>
        <dc:type
           rdf:resource="http://purl.org/dc/dcmitype/StillImage" />
        <dc:title></dc:title>
      </cc:Work>
    </rdf:RDF>
  </metadata>
  <sodipodi:namedview
     pagecolor="#ffffff"
     bordercolor="#666666"
     borderopacity="1"
     objecttolerance="10"
     gridtolerance="10"
     guidetolerance="10"
     inkscape:pageopacity="0"
     inkscape:pageshadow="2"
     inkscape:window-width="1920"
     inkscape:window-height="1057"
     id="namedview142"
     showgrid="false"
     inkscape:zoom="57.780725"
     inkscape:cx="132.89194"
     inkscape:cy="4.8958329"
     inkscape:window-x="0"
     inkscape:window-y="0"
     inkscape:window-maximized="1"
     inkscape:current-layer="svg140" />
  <desc
     id="desc2">Created with getavataaars.com</desc>
  <defs
     id="defs7">
    <circle
       id="path-1"
       cx="120"
       cy="120"
       r="120" />
    <path
       d="m 12,160 c 0,66.27417 53.72583,120 120,120 66.27417,0 120,-53.72583 120,-120 h 12 V 0 H 0 v 160 z"
       id="path-3" />
    <path
       d="M 124,144.61095 V 163 h 4 v 0 c 39.7645,0 72,32.2355 72,72 v 9 H 0 v -9 c 0,-39.7645 32.235498,-72 72,-72 v 0 h 4 V 144.61095 C 58.762634,136.42237 46.372225,119.68701 44.305139,99.881238 38.480311,99.057787 34,94.05211 34,88 V 74 C 34,68.054007 38.324573,63.118073 44,62.165917 V 56 56 C 44,25.072054 69.072054,0 100,0 v 0 0 c 30.92795,0 56,25.072054 56,56 v 6.165917 c 5.67543,0.952156 10,5.88809 10,11.834083 v 14 c 0,6.05211 -4.48031,11.057787 -10.30514,11.881238 C 153.62778,119.68701 141.23736,136.42237 124,144.61095 Z"
       id="path-5" />
  </defs>
  <g
     id="g138"
     stroke="none"
     stroke-width="1"
     fill="none"
     fill-rule="evenodd"
     transform="translate(0,-26.099226)">
    <g
       transform="translate(-825,-1100)"
       id="Avataaar/Circle">
      <g
         transform="translate(825,1100)"
         id="g135">
        <g
           id="Circle"
           stroke-width="1"
           fill-rule="evenodd"
           transform="translate(12,40)">
          <mask
             id="mask-2"
             fill="#ffffff">
            <use
               xlink:href="#path-1"
               id="use9"
               x="0"
               y="0"
               width="100%"
               height="100%" />
          </mask>
          <use
             id="Circle-Background"
             fill="#e6e6e6"
             xlink:href="#path-1"
             x="0"
             y="0"
             width="100%"
             height="100%" />
          <g
             id="Color/Palette/Blue-01"
             mask="url(#mask-2)"
             fill="#65c9ff">
            <rect
               id="ðŸ–Color"
               x="0"
               y="0"
               width="240"
               height="240" />
          </g>
        </g>
        <mask
           id="mask-4"
           fill="#ffffff">
          <use
             xlink:href="#path-3"
             id="use16"
             x="0"
             y="0"
             width="100%"
             height="100%" />
        </mask>
        <g
           id="Mask" />
        <g
           id="Avataaar"
           stroke-width="1"
           fill-rule="evenodd"
           mask="url(#mask-4)">
          <g
             id="Body"
             transform="translate(32,36)">
            <mask
               id="mask-6"
               fill="#ffffff">
              <use
                 xlink:href="#path-5"
                 id="use20"
                 x="0"
                 y="0"
                 width="100%"
                 height="100%" />
            </mask>
            <use
               fill="#d0c6ac"
               xlink:href="#path-5"
               id="use23"
               x="0"
               y="0"
               width="100%"
               height="100%" />
            <g
               id="Skin/ðŸ‘¶ðŸ½-03-Brown"
               mask="url(#mask-6)"
               fill="#edb98a">
              <g
                 transform="translate(-32)"
                 id="Color">
                <rect
                   x="0"
                   y="0"
                   width="264"
                   height="244"
                   id="rect25" />
              </g>
            </g>
            <path
               d="m 156,79 v 23 c 0,30.92795 -25.07205,56 -56,56 -30.927946,0 -56,-25.07205 -56,-56 V 79 94 c 0,30.92795 25.072054,56 56,56 30.92795,0 56,-25.07205 56,-56 z"
               id="Neck-Shadow"
               fill-opacity="0.1"
               fill="#000000"
               mask="url(#mask-6)" />
          </g>
          <g
             id="Clothing/Blazer-+-Shirt"
             transform="translate(0,170)">
            <defs
               id="defs32">
              <path
                 d="M 133.96047,0.29491611 C 170.93647,3.3249982 200,34.294286 200,72.051723 V 81 H 0 V 72.051723 C 0,33.952563 29.591985,2.7649812 67.045406,0.21952641 67.01526,0.59311455 67,0.96922718 67,1.3476251 67,13.210718 81.998461,22.827654 100.5,22.827654 c 18.50154,0 33.5,-9.616936 33.5,-21.4800289 0,-0.35295601 -0.0133,-0.70392372 -0.0395,-1.05270899 z"
                 id="react-path-92" />
            </defs>
            <g
               id="Shirt"
               transform="translate(32,29)">
              <mask
                 id="react-mask-93"
                 fill="#ffffff">
                <use
                   xlink:href="#react-path-92"
                   id="use34"
                   x="0"
                   y="0"
                   width="100%"
                   height="100%" />
              </mask>
              <use
                 id="Clothes"
                 fill="#e6e6e6"
                 xlink:href="#react-path-92"
                 x="0"
                 y="0"
                 width="100%"
                 height="100%" />
              <g
                 id="Color/Palette/Black"
                 mask="url(#react-mask-93)"
                 fill="#262e33">
                <g
                   transform="translate(-32,-29)"
                   id="g40">
                  <rect
                     x="0"
                     y="0"
                     width="264"
                     height="110"
                     id="rect38" />
                </g>
              </g>
              <g
                 id="Shadowy"
                 opacity="0.6"
                 mask="url(#react-mask-93)"
                 fill-opacity="0.16"
                 fill="#000000">
                <g
                   transform="translate(60,-25)"
                   id="Hola-ðŸ‘‹ðŸ¼">
                  <ellipse
                     cx="40.5"
                     cy="27.847626"
                     rx="39.635105"
                     ry="26.913828"
                     id="ellipse43" />
                </g>
              </g>
            </g>
            <g
               id="Blazer"
               transform="translate(32,28)">
              <path
                 d="M 68.784807,1.1222285 C 30.512317,2.8040974 0,34.364644 0,73.051723 v 0 V 82 H 69.361677 C 65.960741,69.919994 64,55.70873 64,40.5 64,26.172974 65.739989,12.731112 68.784807,1.1222285 Z M 131.63832,82 H 200 V 73.051723 C 200,34.706764 170.02495,3.3628517 132.22872,1.1738423 135.26516,12.770946 137,26.194202 137,40.5 c 0,15.20873 -1.96074,29.419994 -5.36168,41.5 z"
                 id="Saco"
                 fill="#3a4c5a" />
              <path
                 d="m 149,58 9.55585,-7.16689 v 0 c 1.44305,-1.082283 3.43193,-1.064837 4.85577,0.04259 L 170,56 Z"
                 id="Pocket-hanky"
                 fill="#e6e6e6" />
              <path
                 d="m 69,0 c -4,19.333333 -2.333333,46.666667 5,82 H 58 L 44,46 50,37 44,31 63,1 c 2.027659,-0.63076136 4.027659,-0.9640947 6,-1 z"
                 id="Wing"
                 fill="#2f4351" />
              <path
                 d="m 151,0 c -4,19.333333 -2.33333,46.666667 5,82 h -16 l -14,-36 6,-9 -6,-6 19,-30 c 2.02766,-0.63076136 4.02766,-0.9640947 6,-1 z"
                 id="path51"
                 fill="#2f4351"
                 transform="matrix(-1,0,0,1,282,0)" />
            </g>
          </g>
          <g
             id="Face"
             transform="translate(76,82)"
             fill="#000000">
            <g
               id="Mouth/Default"
               transform="translate(2,52)"
               fill-opacity="0.7">
              <path
                 d="m 40,15 c 0,7.731987 6.268014,14 14,14 v 0 c 7.731986,0 14,-6.268013 14,-14"
                 id="Mouth" />
            </g>
            <g
               id="Nose/Default"
               transform="translate(28,40)"
               fill-opacity="0.16">
              <path
                 d="m 16,8 c 0,4.418278 5.372583,8 12,8 v 0 c 6.627417,0 12,-3.581722 12,-8"
                 id="Nose" />
            </g>
            <g
               id="Eyes/Default-ðŸ˜€"
               transform="translate(0,8)"
               fill-opacity="0.6">
              <circle
                 id="Eye"
                 cx="30"
                 cy="22"
                 r="6" />
              <circle
                 id="circle60"
                 cx="82"
                 cy="22"
                 r="6" />
            </g>
            <g
               id="Eyebrow/Outline/Default"
               fill-opacity="0.6">
              <g
                 id="I-Browse"
                 transform="translate(12,6)">
                <path
                   d="M 3.6302454,11.158577 C 7.545155,5.6498667 18.27792,2.5608372 27.523027,4.8311805 28.595725,5.0946055 29.678867,4.4385601 29.942292,3.3658621 30.205717,2.2931641 29.549671,1.2100224 28.476973,0.94659732 17.740363,-1.6900179 5.3120996,1.8869983 0.36975464,8.8414233 -0.27010963,9.7417829 -0.05893639,10.990381 0.84142326,11.630245 1.7417829,12.27011 2.9903811,12.058936 3.6302454,11.158577 Z"
                   id="Eyebrow"
                   fill-rule="nonzero" />
                <path
                   d="M 61.630245,11.158577 C 65.545155,5.6498667 76.27792,2.5608372 85.523027,4.8311805 86.595725,5.0946055 87.678866,4.4385601 87.942292,3.3658621 88.205717,2.2931641 87.549671,1.2100224 86.476973,0.94659732 75.740363,-1.6900179 63.3121,1.8869983 58.369755,8.8414233 c -0.639865,0.9003596 -0.428691,2.1489577 0.471668,2.7888217 0.90036,0.639865 2.148958,0.428691 2.788822,-0.471668 z"
                   id="path64"
                   fill-rule="nonzero"
                   transform="matrix(-1,0,0,1,146.00031,0)" />
              </g>
            </g>
          </g>
          <g
             id="Top"
             stroke-width="1"
             fill-rule="evenodd">
            <defs
               id="defs82">
              <rect
                 id="react-path-51"
                 x="0"
                 y="0"
                 width="264"
                 height="280" />
              <path
                 d="M 167.30886,35.006118 C 147.12109,23.306511 127.12895,25.221985 112.03689,29.029971 96.944834,32.837956 88.016824,43.651305 80.356679,59.648062 c -3.761074,7.854795 -5.990661,17.143418 -6.333622,25.833303 -0.134614,3.411902 0.325374,6.933789 1.244672,10.21899 0.337211,1.205832 2.155515,5.386635 2.654737,2.008495 0.166069,-1.124597 -0.442062,-2.676099 -0.500913,-3.871235 -0.07712,-1.568217 0.0057,-3.156828 0.112629,-4.722705 0.199892,-2.927496 0.721775,-5.799497 1.650544,-8.590263 1.327199,-3.987907 3.016638,-8.311788 5.602715,-11.676553 6.40093,-8.3275 17.481219,-8.802211 26.278819,-13.384509 -0.76338,1.405077 -3.70662,3.679679 -2.68687,5.263274 0.70419,1.093841 3.37008,0.762212 4.64283,0.72711 3.34878,-0.0916 6.71277,-0.67429 10.02062,-1.146995 5.21308,-0.745163 10.09774,-2.255211 15.00371,-4.088866 4.01644,-1.501692 8.60346,-2.892394 11.62213,-6.077638 4.87113,5.047649 11.14117,9.79409 17.40173,13.002401 5.61794,2.879356 14.67834,4.318198 18.11235,10.157812 4.06514,6.914065 2.19475,15.406711 3.43638,22.900124 0.47216,2.849603 1.54501,2.785751 2.13217,0.237021 0.9971,-4.329565 1.46791,-8.827618 1.15065,-13.278535 -0.71839,-10.047826 -4.40532,-36.453568 -24.5931,-48.153175 z"
                 id="react-path-50" />
              <filter
                 x="-0.0080000004"
                 y="-0.02"
                 width="1.015"
                 height="1.08"
                 filterUnits="objectBoundingBox"
                 id="react-filter-47">
                <feOffset
                   dx="0"
                   dy="2"
                   in="SourceAlpha"
                   result="shadowOffsetOuter1"
                   id="feOffset71" />
                <feColorMatrix
                   values="0 0 0 0 0   0 0 0 0 0   0 0 0 0 0  0 0 0 0.16 0"
                   type="matrix"
                   in="shadowOffsetOuter1"
                   result="shadowMatrixOuter1"
                   id="feColorMatrix73" />
                <feMerge
                   id="feMerge79">
                  <feMergeNode
                     in="shadowMatrixOuter1"
                     id="feMergeNode75" />
                  <feMergeNode
                     in="SourceGraphic"
                     id="feMergeNode77" />
                </feMerge>
              </filter>
            </defs>
            <mask
               id="react-mask-49"
               fill="#ffffff">
              <use
                 xlink:href="#react-path-51"
                 id="use84"
                 x="0"
                 y="0"
                 width="100%"
                 height="100%" />
            </mask>
            <g
               id="g87" />
            <g
               id="Top/Short-Hair/Short-Round"
               mask="url(#react-mask-49)">
              <g
                 transform="translate(-1)"
                 id="g130">
                <g
                   id="Facial-Hair/Beard-Light"
                   transform="translate(49,72)">
                  <defs
                     id="defs90">
                    <path
                       d="m 101.4284,98.168569 c -2.513563,2.294051 -5.19118,3.325741 -8.575456,2.604291 -0.582366,-0.12403 -2.956605,-4.538289 -8.85311,-4.538289 -5.896504,0 -8.270409,4.414259 -8.853109,4.538289 -3.384276,0.72145 -6.061893,-0.31024 -8.575459,-2.604291 -4.725089,-4.312965 -8.654644,-10.260383 -6.293436,-16.749388 1.230554,-3.382239 3.231918,-7.095447 6.872796,-8.17327 3.88779,-1.150369 9.346267,-0.002 13.264128,-0.78764 1.269312,-0.254746 2.6559,-0.707405 3.58508,-1.458271 0.929181,0.750866 2.316103,1.203525 3.584747,1.458271 3.918195,0.785634 9.376671,-0.362729 13.264459,0.78764 3.64088,1.077823 5.64224,4.791031 6.87313,8.17327 2.36121,6.489005 -1.56834,12.436423 -6.29377,16.749388 M 140.08103,26 c -3.41034,8.400253 -2.09326,18.858035 -2.72436,27.675872 -0.51263,7.167322 -2.01955,17.909881 -8.38381,22.538659 -3.2545,2.367083 -9.1785,6.345368 -13.43099,5.235663 -2.92733,-0.763809 -3.23969,-9.160098 -7.08659,-12.303214 -4.36356,-3.564665 -9.812295,-5.130937 -15.306132,-4.889108 -2.37061,0.104396 -7.165011,0.07962 -9.149215,1.902586 -1.984203,-1.822967 -6.778268,-1.79819 -9.148878,-1.902586 -5.494174,-0.241829 -10.942908,1.324443 -15.306473,4.889108 -3.846898,3.143116 -4.158918,11.539405 -7.086249,12.303214 -4.25249,1.109705 -10.176491,-2.86858 -13.431325,-5.235663 C 32.66241,71.585753 31.156165,60.843194 30.642864,53.675872 30.012093,44.858035 31.329173,34.400253 27.918834,26 c -1.659057,0 -0.5648,16.128869 -0.5648,16.128869 V 62.48512 c 0.03164,15.288085 9.581061,38.17033 30.753978,46.90788 5.178115,2.13682 16.907299,5.607 25.891921,5.607 8.984622,0 20.713807,-3.13981 25.891927,-5.27663 21.17291,-8.73756 30.72233,-31.950165 30.75431,-47.23825 V 42.128869 c 0,0 1.09392,-16.128869 -0.56514,-16.128869"
                       id="react-path-75" />
                  </defs>
                  <mask
                     id="react-mask-74"
                     fill="#ffffff">
                    <use
                       xlink:href="#react-path-75"
                       id="use92"
                       x="0"
                       y="0"
                       width="100%"
                       height="100%" />
                  </mask>
                  <use
                     id="Lite-Beard"
                     fill="#331b0c"
                     fill-rule="evenodd"
                     xlink:href="#react-path-75"
                     x="0"
                     y="0"
                     width="100%"
                     height="100%" />
                  <g
                     id="Color/Hair/Brown"
                     mask="url(#react-mask-74)"
                     fill="#2c1b18">
                    <g
                       transform="translate(-32)"
                       id="g98">
                      <rect
                         x="0"
                         y="0"
                         width="264"
                         height="244"
                         id="rect96" />
                    </g>
                  </g>
                </g>
                <mask
                   id="react-mask-48"
                   fill="#ffffff">
                  <use
                     xlink:href="#react-path-50"
                     id="use102"
                     x="0"
                     y="0"
                     width="100%"
                     height="100%" />
                </mask>
                <use
                   id="Short-Hair"
                   stroke="none"
                   fill="#28354b"
                   fill-rule="evenodd"
                   xlink:href="#react-path-50"
                   x="0"
                   y="0"
                   width="100%"
                   height="100%" />
                <g
                   id="g110"
                   mask="url(#react-mask-48)"
                   fill="#2c1b18">
                  <g
                     id="g108">
                    <rect
                       x="0"
                       y="0"
                       width="264"
                       height="280"
                       id="rect106" />
                  </g>
                </g>
                <g
                   id="Top/_Resources/Prescription-02"
                   fill="none"
                   transform="translate(62,85)"
                   stroke-width="1">
                  <defs
                     id="defs123">
                    <filter
                       x="-0.0080000004"
                       y="-0.024"
                       width="1.015"
                       height="1.098"
                       filterUnits="objectBoundingBox"
                       id="react-filter-63">
                      <feOffset
                         dx="0"
                         dy="2"
                         in="SourceAlpha"
                         result="shadowOffsetOuter1"
                         id="feOffset112" />
                      <feColorMatrix
                         values="0 0 0 0 0   0 0 0 0 0   0 0 0 0 0  0 0 0 0.2 0"
                         type="matrix"
                         in="shadowOffsetOuter1"
                         result="shadowMatrixOuter1"
                         id="feColorMatrix114" />
                      <feMerge
                         id="feMerge120">
                        <feMergeNode
                           in="shadowMatrixOuter1"
                           id="feMergeNode116" />
                        <feMergeNode
                           in="SourceGraphic"
                           id="feMergeNode118" />
                      </feMerge>
                    </filter>
                  </defs>
                  <g
                     id="Wayfarers"
                     filter="url(#react-filter-63)"
                     transform="translate(6,7)"
                     fill="#252c2f">
                    <path
                       d="M 34,41 H 31.24215 C 17.314712,41 9,33.335929 9,20.5 9,10.127 10.817006,0 32.529931,0 h 2.940138 C 57.182994,0 59,10.127 59,20.5 59,32.568643 48.721275,41 34,41 Z M 32.385361,6 C 13,6 13,12.841016 13,21.50155 13,28.571943 16.116254,37 30.970936,37 H 34 C 46.364908,37 55,30.627037 55,21.50155 55,12.841016 55,6 35.614639,6 Z"
                       id="Left"
                       fill-rule="nonzero" />
                    <path
                       d="M 96,41 H 93.24215 C 79.314712,41 71,33.335929 71,20.5 71,10.127 72.817006,0 94.529931,0 h 2.940138 C 119.18299,0 121,10.127 121,20.5 121,32.568643 110.72128,41 96,41 Z M 94.385361,6 C 75,6 75,12.841016 75,21.50155 75,28.571943 78.119483,37 92.970936,37 H 96 c 12.36491,0 21,-6.372963 21,-15.49845 C 117,12.841016 117,6 97.614639,6 Z"
                       id="Right"
                       fill-rule="nonzero" />
                    <path
                       d="M 2.9545455,5.7715644 C 3.6459091,5.0962914 11.209546,0 32.5,0 50.351364,0 54.130227,1.8526722 59.850227,4.6518809 l 0.418696,0.2066281 c 0.397678,0.14051 2.431322,0.8313208 4.810138,0.9072862 C 67.246295,5.6727857 69.10002,5.0854019 69.641698,4.8971977 76.170391,1.7220864 82.561097,0 97.5,0 c 21.29045,0 28.85409,5.0962914 29.54546,5.7715644 1.63386,0 2.95454,1.2899446 2.95454,2.8857822 v 2.8857824 c 0,1.595837 -1.32068,2.885782 -2.95454,2.885782 0,0 -6.90146,0 -6.90146,2.885782 0,2.885782 -1.96218,-4.175727 -1.96218,-5.771564 V 8.7324025 C 114.57858,7.3534015 108.12841,4.7861753 97.5,4.7861753 c -11.841535,0 -17.738902,2.0998528 -22.797707,4.1849484 l 0.05657,0.1364049 -0.0025,1.9862324 -2.2172,5.349873 -2.738676,-1.082799 c -0.244594,-0.09671 -0.772351,-0.270443 -1.50414,-0.450931 -2.040079,-0.503162 -4.137442,-0.656335 -5.992267,-0.275596 -0.680494,0.139685 -1.311855,0.349301 -1.891271,0.632424 L 57.770482,16.55787 55.126675,11.396203 55.244091,9.1017571 55.32482,8.9068386 C 50.962053,6.8738637 46.939264,4.7861753 32.5,4.7861753 c -10.627854,0 -17.077869,2.5662644 -20.681818,3.9452918 v 2.8116619 c 0,1.595837 -2.9545456,8.657346 -2.9545456,5.771564 0,-2.885782 -5.9090909,-2.885782 -5.9090909,-2.885782 C 1.3236364,14.428911 0,13.138966 0,11.543129 V 8.6573466 C 0,7.061509 1.3236364,5.7715644 2.9545455,5.7715644 Z"
                       id="Stuff"
                       fill-rule="nonzero" />
                  </g>
                </g>
              </g>
            </g>
          </g>
        </g>
      </g>
    </g>
  </g>
</svg>
