<?xml version="1.0" encoding="UTF-8" standalone="no"?>
<svg
   width="599pt"
   height="598.95099pt"
   viewBox="0 0 599 598.95099"
   version="1.1"
   id="svg8"
   sodipodi:docname="left-arrow.svg"
   inkscape:version="1.1.1 (3bf5ae0d25, 2021-09-20)"
   xmlns:inkscape="http://www.inkscape.org/namespaces/inkscape"
   xmlns:sodipodi="http://sodipodi.sourceforge.net/DTD/sodipodi-0.dtd"
   xmlns="http://www.w3.org/2000/svg"
   xmlns:svg="http://www.w3.org/2000/svg">
  <defs
     id="defs12" />
  <sodipodi:namedview
     id="namedview10"
     pagecolor="#ffffff"
     bordercolor="#666666"
     borderopacity="1.0"
     inkscape:pageshadow="2"
     inkscape:pageopacity="0.0"
     inkscape:pagecheckerboard="0"
     inkscape:document-units="pt"
     showgrid="false"
     inkscape:zoom="0.50734446"
     inkscape:cx="338.03464"
     inkscape:cy="424.76073"
     inkscape:window-width="1920"
     inkscape:window-height="1011"
     inkscape:window-x="0"
     inkscape:window-y="0"
     inkscape:window-maximized="1"
     inkscape:current-layer="svg8" />
  <g
     id="#222222ff"
     style="fill:#ffffff"
     transform="matrix(0.99532038,0,0,0.99532038,-9.5528501,-48.910148)">
    <path
       fill="#222222"
       opacity="1"
       d="m 297.17,50.28 c 34.35,-0.97 69.13,2.37 101.95,12.92 25.61,7.48 49.65,19.52 72.27,33.53 74,46.21 125.64,126.62 136.54,213.22 4.34,35.14 3.16,71.07 -4.5,105.68 -6.17,28.8 -17.17,56.46 -31.65,82.07 -15.67,27.56 -35.53,52.76 -59.01,74.08 -43.1,38.85 -97.31,65.93 -154.88,74.47 -12.15,2.26 -24.52,3.2 -36.87,3.46 -42.77,1.62 -85.93,-5.83 -125.47,-22.29 C 149.01,607.81 107.13,576.78 75.76,537.11 39.11,491.36 16.07,434.63 11.66,376.08 9.34,347.67 10.71,318.9 16.17,290.91 31.62,210.29 82.83,137.56 152.82,94.9 195.73,67.33 246.29,52.28 297.17,50.28 m 42.93,98.82 c -4.91,1.58 -8.84,5.04 -12.35,8.69 -58.22,58.06 -116.33,116.24 -174.58,174.29 -9.54,9.05 -10.12,26.03 -0.38,35.15 58.97,59.04 117.95,118.07 176.96,177.07 4.79,4.8 11.26,8.52 18.27,7.91 7.01,0.53 13.46,-3.21 18.32,-7.96 12.35,-12.27 24.61,-24.63 36.98,-36.87 7.24,-6.5 11.45,-16.87 8.57,-26.47 -1.45,-5.99 -5.84,-10.56 -10.11,-14.72 C 363,427.47 324.33,388.64 285.49,349.98 c 39.87,-39.95 79.86,-79.8 119.7,-119.78 6.65,-6.48 9.45,-16.78 6.29,-25.61 -1.45,-4.71 -4.78,-8.5 -8.22,-11.88 -12.53,-12.47 -24.98,-25.02 -37.55,-37.44 -6.55,-6.52 -16.81,-9.39 -25.61,-6.17 z"
       id="path5"
       style="fill:#ffffff" />
  </g>
</svg>
