<?xml version="1.0" encoding="UTF-8" standalone="no"?>
<svg
   xmlns:dc="http://purl.org/dc/elements/1.1/"
   xmlns:cc="http://creativecommons.org/ns#"
   xmlns:rdf="http://www.w3.org/1999/02/22-rdf-syntax-ns#"
   xmlns:svg="http://www.w3.org/2000/svg"
   xmlns="http://www.w3.org/2000/svg"
   xmlns:sodipodi="http://sodipodi.sourceforge.net/DTD/sodipodi-0.dtd"
   xmlns:inkscape="http://www.inkscape.org/namespaces/inkscape"
   width="11pt"
   height="6pt"
   viewBox="0 0 11 5.9999998"
   version="1.1"
   id="svg6"
   sodipodi:docname="folded.svg"
   inkscape:version="1.0.2 (e86c870879, 2021-01-15, custom)">
  <metadata
     id="metadata12">
    <rdf:RDF>
      <cc:Work
         rdf:about="">
        <dc:format>image/svg+xml</dc:format>
        <dc:type
           rdf:resource="http://purl.org/dc/dcmitype/StillImage" />
        <dc:title></dc:title>
      </cc:Work>
    </rdf:RDF>
  </metadata>
  <defs
     id="defs10" />
  <sodipodi:namedview
     pagecolor="#ffffff"
     bordercolor="#666666"
     borderopacity="1"
     objecttolerance="10"
     gridtolerance="10"
     guidetolerance="10"
     inkscape:pageopacity="0"
     inkscape:pageshadow="2"
     inkscape:window-width="1920"
     inkscape:window-height="1057"
     id="namedview8"
     showgrid="false"
     inkscape:zoom="256"
     inkscape:cx="7.1923696"
     inkscape:cy="8.0864213"
     inkscape:window-x="0"
     inkscape:window-y="0"
     inkscape:window-maximized="1"
     inkscape:current-layer="svg6"
     inkscape:document-rotation="0"
     scale-x="0.75" />
  <g
     id="#ffffffff" />
  <g
     id="#35424aff"
     transform="matrix(0.02205812,0,0,0.02205812,-0.22993194,-0.88331441)">
    <path
       fill="#35424a"
       opacity="1"
       d="m 44.15,49.19 c 12.84,-10.4 32.18,-12.28 46.5,-3.83 3.83,2.01 7.2,4.74 10.18,7.85 53.05,53.03 106.06,106.09 159.17,159.05 53.64,-53.45 107.04,-107.13 160.71,-160.55 8.43,-8.3 20.58,-12.59 32.36,-11.49 11.27,0.9 22.05,6.74 28.94,15.71 8.96,11.3 11.19,27.48 5.65,40.8 -2.14,5.66 -5.87,10.57 -10.23,14.72 -62.66,62.69 -125.26,125.45 -188.03,188.03 -7.92,7.98 -19.04,12.96 -30.36,12.55 -11.25,0.07 -21.98,-5.36 -29.71,-13.33 C 166.51,235.83 103.7,172.95 40.81,110.15 32.95,102.67 28.84,91.76 28.86,81 28.77,68.8 34.66,56.8 44.15,49.19 Z"
       id="path3" />
  </g>
</svg>
