<?xml version="1.0" encoding="UTF-8" standalone="no"?>
<!-- Generator: Adobe Illustrator 16.0.0, SVG Export Plug-In . SVG Version: 6.00 Build 0)  -->

<svg
   xmlns:dc="http://purl.org/dc/elements/1.1/"
   xmlns:cc="http://creativecommons.org/ns#"
   xmlns:rdf="http://www.w3.org/1999/02/22-rdf-syntax-ns#"
   xmlns:svg="http://www.w3.org/2000/svg"
   xmlns="http://www.w3.org/2000/svg"
   xmlns:sodipodi="http://sodipodi.sourceforge.net/DTD/sodipodi-0.dtd"
   xmlns:inkscape="http://www.inkscape.org/namespaces/inkscape"
   version="1.1"
   id="Capa_1"
   x="0px"
   y="0px"
   width="25"
   height="25"
   viewBox="0 0 25 25"
   xml:space="preserve"
   sodipodi:docname="more.svg"
   inkscape:version="0.92.5 (2060ec1f9f, 2020-04-08)"><metadata
   id="metadata42"><rdf:RDF><cc:Work
       rdf:about=""><dc:format>image/svg+xml</dc:format><dc:type
         rdf:resource="http://purl.org/dc/dcmitype/StillImage" /><dc:title></dc:title></cc:Work></rdf:RDF></metadata><defs
   id="defs40" /><sodipodi:namedview
   pagecolor="#ffffff"
   bordercolor="#666666"
   borderopacity="1"
   objecttolerance="10"
   gridtolerance="10"
   guidetolerance="10"
   inkscape:pageopacity="0"
   inkscape:pageshadow="2"
   inkscape:window-width="1920"
   inkscape:window-height="1057"
   id="namedview38"
   showgrid="false"
   inkscape:zoom="256"
   inkscape:cx="12.613677"
   inkscape:cy="24.278974"
   inkscape:window-x="0"
   inkscape:window-y="0"
   inkscape:window-maximized="1"
   inkscape:current-layer="Capa_1" />
<g
   id="g5"
   transform="scale(0.06127451)"
   style="fill:#037aff;fill-opacity:1">
	<g
   id="more-vert"
   style="fill:#037aff;fill-opacity:1">
		<path
   d="m 204,102 c 28.05,0 51,-22.95 51,-51 0,-28.05 -22.95,-51 -51,-51 -28.05,0 -51,22.95 -51,51 0,28.05 22.95,51 51,51 z m 0,51 c -28.05,0 -51,22.95 -51,51 0,28.05 22.95,51 51,51 28.05,0 51,-22.95 51,-51 0,-28.05 -22.95,-51 -51,-51 z m 0,153 c -28.05,0 -51,22.95 -51,51 0,28.05 22.95,51 51,51 28.05,0 51,-22.95 51,-51 0,-28.05 -22.95,-51 -51,-51 z"
   id="path2"
   inkscape:connector-curvature="0"
   style="fill:#037aff;fill-opacity:1" />
	</g>
</g>
<g
   id="g7"
   transform="translate(0,-383)">
</g>
<g
   id="g9"
   transform="translate(0,-383)">
</g>
<g
   id="g11"
   transform="translate(0,-383)">
</g>
<g
   id="g13"
   transform="translate(0,-383)">
</g>
<g
   id="g15"
   transform="translate(0,-383)">
</g>
<g
   id="g17"
   transform="translate(0,-383)">
</g>
<g
   id="g19"
   transform="translate(0,-383)">
</g>
<g
   id="g21"
   transform="translate(0,-383)">
</g>
<g
   id="g23"
   transform="translate(0,-383)">
</g>
<g
   id="g25"
   transform="translate(0,-383)">
</g>
<g
   id="g27"
   transform="translate(0,-383)">
</g>
<g
   id="g29"
   transform="translate(0,-383)">
</g>
<g
   id="g31"
   transform="translate(0,-383)">
</g>
<g
   id="g33"
   transform="translate(0,-383)">
</g>
<g
   id="g35"
   transform="translate(0,-383)">
</g>
</svg>