<?xml version="1.0" encoding="UTF-8" ?>
<!DOCTYPE svg PUBLIC "-//W3C//DTD SVG 1.1//EN" "http://www.w3.org/Graphics/SVG/1.1/DTD/svg11.dtd">
<svg width="326pt" height="360pt" viewBox="0 0 326 360" version="1.1" xmlns="http://www.w3.org/2000/svg">
<g id="#eaeae4ff">
<path fill="#eaeae4" opacity="1.00" d=" M 86.74 0.00 L 228.80 0.00 L 229.30 0.43 C 228.93 2.62 228.62 4.82 228.64 7.03 C 228.72 25.35 228.67 43.67 228.68 61.99 C 228.71 67.31 228.29 72.81 230.06 77.92 C 232.71 86.04 239.28 92.78 247.39 95.50 C 253.05 97.50 259.15 96.92 265.04 97.00 C 285.24 97.04 305.45 96.91 325.66 97.07 C 325.67 175.71 325.71 254.36 325.64 333.00 C 325.64 346.78 313.99 358.87 300.36 360.00 L 88.30 360.00 C 75.23 359.68 63.39 349.00 61.95 335.97 C 61.38 328.26 61.79 320.51 61.71 312.78 C 112.12 313.26 162.56 312.82 212.98 313.00 C 215.84 313.07 218.77 312.88 221.38 311.54 C 221.44 311.52 221.55 311.46 221.61 311.43 C 222.18 311.12 223.31 310.49 223.88 310.17 C 225.38 310.14 226.15 309.37 226.19 307.87 C 226.48 307.33 227.06 306.27 227.35 305.74 C 227.42 305.59 227.57 305.28 227.64 305.13 C 227.78 304.76 228.07 304.01 228.21 303.64 C 229.39 300.56 228.93 297.21 229.01 293.99 C 229.00 257.00 228.99 220.01 229.01 183.02 C 229.03 181.43 228.76 179.85 228.22 178.36 C 228.07 177.98 227.78 177.22 227.64 176.84 C 227.56 176.68 227.41 176.37 227.34 176.21 C 227.05 175.69 226.48 174.64 226.19 174.12 C 226.15 172.62 225.38 171.85 223.89 171.82 C 223.32 171.50 222.18 170.88 221.61 170.56 C 221.55 170.54 221.44 170.48 221.38 170.45 C 219.39 169.50 217.23 168.96 215.03 169.02 C 167.38 169.02 119.73 169.02 72.08 169.02 C 68.62 168.99 65.16 168.96 61.71 169.22 C 61.67 121.83 61.66 74.45 61.71 27.07 C 61.66 13.35 73.20 1.28 86.74 0.00 Z" />
</g>
<g id="#babab9ff">
<path fill="#babab9" opacity="1.00" d=" M 229.30 0.43 C 261.62 32.55 293.78 64.84 326.00 97.06 L 326.00 97.08 L 325.66 97.07 C 305.45 96.91 285.24 97.04 265.04 97.00 C 259.15 96.92 253.05 97.50 247.39 95.50 C 239.28 92.78 232.71 86.04 230.06 77.92 C 228.29 72.81 228.71 67.31 228.68 61.99 C 228.67 43.67 228.72 25.35 228.64 7.03 C 228.62 4.82 228.93 2.62 229.30 0.43 Z" />
</g>
<g id="#f24646ff">
<path fill="#f24646" opacity="1.00" d=" M 1.57 176.82 C 3.61 172.42 8.24 169.37 13.11 169.37 C 29.31 169.20 45.52 169.52 61.71 169.22 C 65.16 168.96 68.62 168.99 72.08 169.02 C 119.73 169.02 167.38 169.02 215.03 169.02 C 217.23 168.96 219.39 169.50 221.38 170.45 C 221.44 170.48 221.55 170.54 221.61 170.56 C 222.18 170.88 223.32 171.50 223.89 171.82 C 224.10 173.13 224.87 173.90 226.19 174.12 C 226.48 174.64 227.05 175.69 227.34 176.21 C 227.41 176.37 227.56 176.68 227.64 176.84 C 227.78 177.22 228.07 177.98 228.22 178.36 C 228.09 180.56 227.95 182.76 227.98 184.97 C 228.21 224.52 227.73 264.09 228.21 303.64 C 228.07 304.01 227.78 304.76 227.64 305.13 C 227.57 305.28 227.42 305.59 227.35 305.74 C 227.06 306.27 226.48 307.33 226.19 307.87 C 224.88 308.09 224.11 308.86 223.88 310.17 C 223.31 310.49 222.18 311.12 221.61 311.43 C 221.55 311.46 221.44 311.52 221.38 311.54 C 218.77 312.88 215.84 313.07 212.98 313.00 C 162.56 312.82 112.12 313.26 61.71 312.78 C 45.50 312.48 29.27 312.81 13.05 312.62 C 8.28 312.58 3.73 309.65 1.67 305.35 C -0.10 301.85 0.39 297.81 0.32 294.02 C 0.33 258.68 0.33 223.34 0.32 188.00 C 0.39 184.27 -0.09 180.30 1.57 176.82 M 28.39 212.16 C 28.41 231.38 28.42 250.61 28.39 269.83 C 32.51 269.89 36.63 269.87 40.76 269.85 C 40.76 263.61 40.73 257.38 40.77 251.14 C 45.82 251.08 50.88 251.26 55.93 251.04 C 62.08 250.77 68.31 248.16 72.17 243.24 C 77.74 236.29 77.36 225.29 71.17 218.84 C 66.83 214.14 60.27 212.06 53.98 212.14 C 45.45 212.14 36.92 212.12 28.39 212.16 M 88.57 212.13 C 88.55 231.38 88.49 250.63 88.60 269.88 C 98.67 269.47 108.90 270.79 118.85 268.75 C 126.50 267.01 133.76 262.67 138.04 255.97 C 144.06 246.69 143.80 233.70 137.23 224.77 C 132.49 218.17 124.79 214.20 116.90 212.84 C 107.53 211.47 98.01 212.43 88.57 212.13 M 156.17 212.15 C 156.16 231.38 156.15 250.61 156.18 269.85 C 160.32 269.85 164.46 269.86 168.60 269.83 C 168.60 262.22 168.59 254.61 168.61 247.01 C 178.15 246.95 187.69 247.08 197.23 246.95 C 198.13 243.57 197.25 239.59 197.61 235.99 C 187.96 235.61 178.28 235.93 168.61 235.83 C 168.57 231.72 168.67 227.61 168.52 223.51 C 179.15 223.10 189.81 223.38 200.46 223.37 C 200.74 219.65 200.54 215.92 200.62 212.19 C 185.80 212.08 170.99 212.17 156.17 212.15 Z" />
<path fill="#f24646" opacity="1.00" d=" M 40.71 223.62 C 45.44 223.35 50.19 223.37 54.92 223.62 C 58.90 223.90 63.10 226.73 63.29 231.02 C 63.79 235.32 60.06 238.91 56.01 239.46 C 50.97 240.15 45.85 239.65 40.78 239.80 C 40.70 234.41 40.82 229.01 40.71 223.62 Z" />
<path fill="#f24646" opacity="1.00" d=" M 101.01 223.37 C 105.03 223.46 109.05 223.32 113.06 223.43 C 121.00 223.73 128.10 230.18 129.30 238.02 C 130.70 245.47 126.62 253.49 119.79 256.76 C 113.98 259.74 107.30 258.20 101.06 258.65 C 100.75 246.90 100.84 235.12 101.01 223.37 Z" />
</g>
<g id="#c29895d2">
<path fill="#c29895" opacity="0.82" d=" M 221.38 170.45 C 221.44 170.48 221.55 170.54 221.61 170.56 C 221.55 170.54 221.44 170.48 221.38 170.45 Z" />
</g>
<g id="#d2bab6e4">
<path fill="#d2bab6" opacity="0.89" d=" M 223.89 171.82 C 225.38 171.85 226.15 172.62 226.19 174.12 C 224.87 173.90 224.10 173.13 223.89 171.82 Z" />
</g>
<g id="#c39694d2">
<path fill="#c39694" opacity="0.82" d=" M 227.34 176.21 C 227.41 176.37 227.56 176.68 227.64 176.84 C 227.56 176.68 227.41 176.37 227.34 176.21 Z" />
</g>
<g id="#bc4847c7">
<path fill="#bc4847" opacity="0.78" d=" M 228.22 178.36 C 228.76 179.85 229.03 181.43 229.01 183.02 C 228.99 220.01 229.00 257.00 229.01 293.99 C 228.93 297.21 229.39 300.56 228.21 303.64 C 227.73 264.09 228.21 224.52 227.98 184.97 C 227.95 182.76 228.09 180.56 228.22 178.36 Z" />
</g>
<g id="#fffceeff">
<path fill="#fffcee" opacity="1.00" d=" M 28.39 212.16 C 36.92 212.12 45.45 212.14 53.98 212.14 C 60.27 212.06 66.83 214.14 71.17 218.84 C 77.36 225.29 77.74 236.29 72.17 243.24 C 68.31 248.16 62.08 250.77 55.93 251.04 C 50.88 251.26 45.82 251.08 40.77 251.14 C 40.73 257.38 40.76 263.61 40.76 269.85 C 36.63 269.87 32.51 269.89 28.39 269.83 C 28.42 250.61 28.41 231.38 28.39 212.16 M 40.71 223.62 C 40.82 229.01 40.70 234.41 40.78 239.80 C 45.85 239.65 50.97 240.15 56.01 239.46 C 60.06 238.91 63.79 235.32 63.29 231.02 C 63.10 226.73 58.90 223.90 54.92 223.62 C 50.19 223.37 45.44 223.35 40.71 223.62 Z" />
<path fill="#fffcee" opacity="1.00" d=" M 88.57 212.13 C 98.01 212.43 107.53 211.47 116.90 212.84 C 124.79 214.20 132.49 218.17 137.23 224.77 C 143.80 233.70 144.06 246.69 138.04 255.97 C 133.76 262.67 126.50 267.01 118.85 268.75 C 108.90 270.79 98.67 269.47 88.60 269.88 C 88.49 250.63 88.55 231.38 88.57 212.13 M 101.01 223.37 C 100.84 235.12 100.75 246.90 101.06 258.65 C 107.30 258.20 113.98 259.74 119.79 256.76 C 126.62 253.49 130.70 245.47 129.30 238.02 C 128.10 230.18 121.00 223.73 113.06 223.43 C 109.05 223.32 105.03 223.46 101.01 223.37 Z" />
<path fill="#fffcee" opacity="1.00" d=" M 156.17 212.15 C 170.99 212.17 185.80 212.08 200.62 212.19 C 200.54 215.92 200.74 219.65 200.46 223.37 C 189.81 223.38 179.15 223.10 168.52 223.51 C 168.67 227.61 168.57 231.72 168.61 235.83 C 178.28 235.93 187.96 235.61 197.61 235.99 C 197.25 239.59 198.13 243.57 197.23 246.95 C 187.69 247.08 178.15 246.95 168.61 247.01 C 168.59 254.61 168.60 262.22 168.60 269.83 C 164.46 269.86 160.32 269.85 156.18 269.85 C 156.15 250.61 156.16 231.38 156.17 212.15 Z" />
</g>
<g id="#c39a96d2">
<path fill="#c39a96" opacity="0.82" d=" M 227.35 305.74 C 227.42 305.59 227.57 305.28 227.64 305.13 C 227.57 305.28 227.42 305.59 227.35 305.74 Z" />
</g>
<g id="#d2bbb7e5">
<path fill="#d2bbb7" opacity="0.90" d=" M 223.88 310.17 C 224.11 308.86 224.88 308.09 226.19 307.87 C 226.15 309.37 225.38 310.14 223.88 310.17 Z" />
</g>
<g id="#c49d99d4">
<path fill="#c49d99" opacity="0.83" d=" M 221.38 311.54 C 221.44 311.52 221.55 311.46 221.61 311.43 C 221.55 311.46 221.44 311.52 221.38 311.54 Z" />
</g>
</svg>
