<?xml version="1.0" encoding="UTF-8" standalone="no"?>
<!-- Created with Inkscape (http://www.inkscape.org/) -->

<svg
   xmlns:dc="http://purl.org/dc/elements/1.1/"
   xmlns:cc="http://creativecommons.org/ns#"
   xmlns:rdf="http://www.w3.org/1999/02/22-rdf-syntax-ns#"
   xmlns:svg="http://www.w3.org/2000/svg"
   xmlns="http://www.w3.org/2000/svg"
   xmlns:sodipodi="http://sodipodi.sourceforge.net/DTD/sodipodi-0.dtd"
   xmlns:inkscape="http://www.inkscape.org/namespaces/inkscape"
   width="25mm"
   height="25mm"
   viewBox="0 0 25 25"
   version="1.1"
   id="svg8"
   inkscape:version="0.92.5 (2060ec1f9f, 2020-04-08)"
   sodipodi:docname="question.svg">
  <defs
     id="defs2" />
  <sodipodi:namedview
     id="base"
     pagecolor="#ffffff"
     bordercolor="#666666"
     borderopacity="1.0"
     inkscape:pageopacity="0.0"
     inkscape:pageshadow="2"
     inkscape:zoom="5.6"
     inkscape:cx="-4.1718984"
     inkscape:cy="56.834439"
     inkscape:document-units="mm"
     inkscape:current-layer="layer1"
     showgrid="false"
     inkscape:window-width="1920"
     inkscape:window-height="1057"
     inkscape:window-x="0"
     inkscape:window-y="0"
     inkscape:window-maximized="1" />
  <metadata
     id="metadata5">
    <rdf:RDF>
      <cc:Work
         rdf:about="">
        <dc:format>image/svg+xml</dc:format>
        <dc:type
           rdf:resource="http://purl.org/dc/dcmitype/StillImage" />
        <dc:title />
      </cc:Work>
    </rdf:RDF>
  </metadata>
  <g
     inkscape:label="Layer 1"
     inkscape:groupmode="layer"
     id="layer1"
     transform="translate(0,-272)">
    <path
       style="fill:#037aff;fill-opacity:1;stroke-width:0.00971812"
       d="m 12.399076,296.99726 c -0.139879,-0.0195 -0.188133,-0.0296 -0.276967,-0.0583 -0.115477,-0.0373 -0.198416,-0.077 -0.302479,-0.14486 -0.05672,-0.037 -0.372717,-0.34745 -1.514889,-1.48843 l -1.4432188,-1.44171 -2.4829025,-1e-5 c -1.6104061,-10e-6 -2.5204713,-0.003 -2.589807,-0.01 -0.6251298,-0.058 -1.1891839,-0.34158 -1.6012801,-0.80525 -0.3220391,-0.36234 -0.5103151,-0.76425 -0.5969079,-1.27422 -0.016527,-0.0973 -0.017454,-0.50704 -0.020322,-8.78519 -0.00236,-6.30426 -3.84e-5,-8.71376 0.00778,-8.7949 0.044369,-0.46013 0.2277677,-0.9116 0.5211014,-1.2828 0.1437606,-0.18192 0.3718807,-0.3875 0.581764,-0.52427 0.278886,-0.18175 0.5868343,-0.29874 0.9541049,-0.36246 l 0.1246068,-0.0216 8.6491312,-0.003 c 5.732498,-0.002 8.691739,3.6e-4 8.775472,0.007 0.217941,0.0169 0.457804,0.0674 0.648,0.13655 0.04639,0.0169 0.153536,0.0646 0.238093,0.10617 0.604398,0.29679 1.05854,0.82974 1.257511,1.47571 0.03371,0.10947 0.07094,0.28446 0.08835,0.41536 0.01889,0.14207 0.01927,17.44599 3.79e-4,17.58495 -0.05959,0.43833 -0.216511,0.82204 -0.479962,1.17366 -0.08724,0.11644 -0.293973,0.33001 -0.411276,0.42488 -0.331088,0.26779 -0.719939,0.44032 -1.156453,0.51309 l -0.126336,0.0211 -2.551008,0.003 -2.551008,0.003 -1.039842,1.03745 c -1.73973,1.73574 -1.835538,1.82962 -1.929048,1.89002 -0.148424,0.0959 -0.273069,0.14862 -0.432457,0.18296 -0.08401,0.0181 -0.279374,0.0311 -0.340133,0.0226 z m 1.316804,-6.77764 v -1.21476 h -1.214765 -1.214766 v 1.21476 1.21476 h 1.214766 1.214765 z m -0.850014,-3.66439 c 0.364054,-0.0506 0.65882,-0.2663 0.815507,-0.59666 0.04929,-0.10393 0.07973,-0.21687 0.107462,-0.39879 0.109009,-0.71506 0.352065,-1.26367 0.811575,-1.83187 0.186089,-0.2301 0.272481,-0.32144 1.190357,-1.25849 0.555128,-0.56674 0.59414,-0.60823 0.721874,-0.76774 0.401926,-0.5019 0.676179,-1.10857 0.788578,-1.7444 0.10147,-0.57401 0.06609,-1.26665 -0.09655,-1.89018 -0.332555,-1.27495 -1.169116,-2.36551 -2.307433,-3.00802 -0.773996,-0.43687 -1.639557,-0.65273 -2.517596,-0.62785 -0.427751,0.0122 -0.803297,0.0672 -1.180754,0.17303 -1.2819349,0.35961 -2.3499644,1.21376 -2.98112,2.38413 -0.1630771,0.3024 -0.3117486,0.66764 -0.3916231,0.96209 -0.026784,0.0988 -0.036805,0.32986 -0.01908,0.44044 0.060223,0.37592 0.3241255,0.69802 0.6744835,0.82325 0.1511995,0.054 0.2669893,0.066 0.5842215,0.0602 0.2535709,-0.004 0.2787234,-0.007 0.3692102,-0.0303 0.3451839,-0.0905 0.6153039,-0.3456 0.7573839,-0.71537 0.132448,-0.3447 0.234975,-0.5303 0.419171,-0.75882 0.336851,-0.41792 0.80709,-0.71664 1.3308,-0.84539 0.714014,-0.17555 1.494287,0.003 2.079681,0.47401 0.335067,0.27 0.608337,0.6509 0.758545,1.05732 0.131864,0.35679 0.178891,0.79811 0.124781,1.17103 -0.06286,0.43318 -0.246225,0.85809 -0.510211,1.18228 -0.07788,0.0956 -0.13379,0.15342 -1.022899,1.05697 -0.723221,0.73498 -0.882075,0.90413 -1.041135,1.10865 -0.319678,0.41102 -0.574259,0.87084 -0.747882,1.35082 -0.132912,0.36743 -0.239963,0.84968 -0.254557,1.14674 -0.01715,0.34872 0.138914,0.67507 0.424979,0.8888 0.134143,0.10022 0.319295,0.17499 0.480244,0.19395 0.101508,0.012 0.546382,0.0121 0.631999,1.6e-4 z"
       id="path826"
       inkscape:connector-curvature="0" />
  </g>
</svg>
